<svg height="1000" width="937.5" xmlns="http://www.w3.org/2000/svg"><path d="M0 500.288q0 -95.16 37.088 -182.024t99.796 -149.572 149.572 -99.796 182.024 -37.088 181.78 37.088 149.572 99.796 100.04 149.572 37.088 182.024 -37.088 182.024 -100.04 149.572 -149.572 99.796 -181.78 37.088 -182.024 -37.088 -149.572 -99.796 -99.796 -149.572 -37.088 -182.024zm183.488 197.152q0 31.232 18.788 52.948t47.092 28.548q25.864 7.32 58.56 7.32 122.488 0 122.488 -102.48 0 -24.888 -13.176 -41.968t-34.648 -24.4q-1.464 -.488 -16.836 -4.88t-23.668 -6.344q-48.312 -12.2 -48.312 -34.648 0 -23.912 26.84 -28.304 41.968 -8.296 66.856 -38.796t24.888 -73.444q0 -12.2 -5.856 -28.304 23.424 -6.344 26.84 -7.32v-68.808q-42.456 16.104 -73.688 16.104 -27.816 -16.104 -60.512 -16.104 -47.336 0 -79.544 31.476t-32.208 78.324q0 28.304 16.348 56.364t39.772 36.356v1.464q-20.496 9.76 -20.496 46.848 0 28.304 22.448 41.968v1.952q-61.976 20.984 -61.976 76.128zm69.296 -3.904q0 -35.136 53.192 -35.136 56.608 0 56.608 33.672 0 36.112 -51.24 36.112 -58.56 0 -58.56 -34.648zm7.32 -256.688q0 -49.288 41.48 -49.288 19.52 0 30.256 13.908t10.736 34.892q0 46.36 -40.992 46.36 -41.48 0 -41.48 -45.872zm197.152 -207.888q0 20.008 13.664 34.648t32.696 14.64 32.696 -14.884 13.664 -34.404q0 -20.008 -13.42 -34.892t-32.94 -14.884 -32.94 14.64 -13.42 35.136zm8.296 396.256h75.64q-1.464 -21.96 -1.464 -49.288v-203.984q0 -22.936 1.464 -41.968h-75.64q1.952 18.544 1.952 43.432v206.424q0 24.888 -1.952 45.384zm107.36 -231.312l20.008 -1.464h6.832q2.928 .488 5.856 .488v.976h-.976v119.56q0 40.992 7.808 65.88 10.248 32.696 37.088 43.432 16.104 6.832 36.6 6.832 34.16 0 59.048 -13.664v-66.368q-17.08 11.712 -37.576 11.712 -28.792 0 -28.792 -44.896v-123.464h28.304q8.296 0 14.64 .488t14.64 .488v-63.928h-57.584q0 -44.896 1.464 -55.632h-76.616q1.952 11.712 1.952 29.768v25.864h-32.696v63.928z"/></svg>